<svg xmlns="http://www.w3.org/2000/svg" width="1200" height="675" viewBox="0 0 1200 675" role="img" aria-labelledby="title desc">
<title id="title">Scholar Alert Reader architecture</title>
<desc id="desc">Google Scholar Alerts enter the local Codex skill, which writes digests, a knowledge base, and optional Obsidian and Zotero exports.</desc>
<rect width="1200" height="675" fill="#f8fafc"/>
<text x="70" y="84" fill="#111827" font-family="Inter, Arial, sans-serif" font-size="46" font-weight="800">Scholar Alert Reader</text>
<text x="72" y="124" fill="#475569" font-family="Inter, Arial, sans-serif" font-size="21">Local literature triage from noisy Google Scholar Alert emails</text>
<defs>
  <marker id="arrow" viewBox="0 0 10 10" refX="9" refY="5" markerWidth="8" markerHeight="8" orient="auto-start-reverse"><path d="M 0 0 L 10 5 L 0 10 z" fill="#64748b"/></marker>
  <filter id="shadow" x="-20%" y="-20%" width="140%" height="140%"><feDropShadow dx="0" dy="10" stdDeviation="10" flood-color="#0f172a" flood-opacity=".12"/></filter>
</defs>
<g font-family="Inter, Arial, sans-serif" font-size="20" font-weight="700">
  <rect x="70" y="210" width="220" height="86" rx="18" fill="#dbeafe" filter="url(#shadow)"/><text x="104" y="262" fill="#1d4ed8">Gmail API</text>
  <rect x="70" y="318" width="220" height="86" rx="18" fill="#dcfce7" filter="url(#shadow)"/><text x="104" y="370" fill="#047857">.mbox / .eml</text>
  <rect x="70" y="426" width="220" height="86" rx="18" fill="#fef3c7" filter="url(#shadow)"/><text x="104" y="478" fill="#92400e">Mail.app</text>
  <rect x="430" y="270" width="330" height="170" rx="24" fill="#ffffff" stroke="#1d4ed8" stroke-width="3" filter="url(#shadow)"/>
  <text x="486" y="334" fill="#111827" font-size="30" font-weight="800">Codex Skill</text>
  <text x="486" y="372" fill="#475569" font-size="18" font-weight="500">dedupe · score · feedback · copilot</text>
  <rect x="890" y="172" width="230" height="72" rx="18" fill="#e0f2fe" filter="url(#shadow)"/><text x="926" y="216" fill="#075985">HTML Digest</text>
  <rect x="890" y="268" width="230" height="72" rx="18" fill="#ede9fe" filter="url(#shadow)"/><text x="924" y="312" fill="#6d28d9">Foundation KB</text>
  <rect x="890" y="364" width="230" height="72" rx="18" fill="#dcfce7" filter="url(#shadow)"/><text x="920" y="408" fill="#047857">Deep Read / Q&amp;A</text>
  <rect x="890" y="460" width="230" height="72" rx="18" fill="#fff7ed" filter="url(#shadow)"/><text x="930" y="504" fill="#c2410c">Obsidian / Zotero</text>
</g>
<g stroke="#64748b" stroke-width="4" fill="none" marker-end="url(#arrow)">
  <path d="M 290 253 C 355 253 365 315 430 315"/><path d="M 290 361 C 360 361 360 356 430 356"/><path d="M 290 469 C 355 469 365 405 430 405"/>
  <path d="M 760 320 C 820 300 835 222 890 208"/><path d="M 760 342 C 820 334 835 306 890 304"/><path d="M 760 368 C 820 380 835 398 890 400"/><path d="M 760 392 C 820 430 835 484 890 496"/>
</g>
<text x="72" y="606" fill="#475569" font-family="Inter, Arial, sans-serif" font-size="18">Codex-only works. Obsidian and Zotero are optional. Gmail OAuth is bring-your-own for public sharing.</text>
</svg>
